<?xml version="1.0" encoding="iso-8859-1"?>
<!-- Generator: Adobe Illustrator 18.0.0, SVG Export Plug-In . SVG Version: 6.00 Build 0)  -->
<!DOCTYPE svg PUBLIC "-//W3C//DTD SVG 1.1//EN" "http://www.w3.org/Graphics/SVG/1.1/DTD/svg11.dtd">
<svg version="1.1" id="Capa_1" xmlns="http://www.w3.org/2000/svg" xmlns:xlink="http://www.w3.org/1999/xlink" x="0px" y="0px"
	 viewBox="0 0 487.001 487.001" style="enable-background:new 0 0 487.001 487.001;" xml:space="preserve">
<g>
	<path d="M400.49,0H86.505C68.611,0,54.052,14.559,54.052,32.453v422.099c0,17.892,14.559,32.449,32.453,32.449H400.49
		c17.898,0,32.459-14.557,32.459-32.449V32.453C432.949,14.559,418.388,0,400.49,0z M100.019,77.677
		c0-13.351,10.822-24.174,24.178-24.174h238.607c13.359,0,24.178,10.823,24.178,24.174v35.737c0,13.355-10.818,24.177-24.178,24.177
		H124.197c-13.355,0-24.178-10.821-24.178-24.177V77.677z M197.494,412.168c4.945,4.947,4.945,12.968-0.002,17.916
		c-2.473,2.473-5.715,3.71-8.957,3.71c-3.242,0-6.484-1.237-8.957-3.711l-22.373-22.375l-22.373,22.375
		c-2.475,2.474-5.717,3.711-8.959,3.711c-3.242,0-6.482-1.237-8.955-3.71c-4.949-4.948-4.949-12.969-0.002-17.916l22.373-22.375
		l-22.373-22.375c-4.947-4.947-4.947-12.968,0.002-17.916c4.947-4.945,12.967-4.946,17.914,0.001l22.373,22.374l22.373-22.374
		c4.947-4.947,12.967-4.947,17.914-0.001c4.947,4.948,4.947,12.969,0.002,17.916l-22.375,22.375L197.494,412.168z M201.511,257.592
		h-31.639v31.643c0,6.996-5.672,12.668-12.668,12.668c-6.996,0-12.668-5.672-12.668-12.668v-31.643h-31.639
		c-6.996,0-12.668-5.672-12.668-12.668s5.672-12.668,12.668-12.668h31.639v-31.643c0-6.995,5.672-12.667,12.668-12.667
		c6.996,0,12.668,5.672,12.668,12.667v31.643h31.639c6.996,0,12.668,5.672,12.668,12.668S208.507,257.592,201.511,257.592z
		 M295.646,436.645c-3.242,0-6.484-1.236-8.957-3.71c-4.949-4.947-4.949-12.968,0-17.915l62.66-62.666
		c4.945-4.947,12.967-4.947,17.914-0.001c4.949,4.947,4.949,12.969,0,17.916l-62.66,62.665
		C302.13,435.407,298.888,436.645,295.646,436.645z M280.634,358.448c0-8.561,6.934-15.507,15.506-15.507
		c8.561,0,15.506,6.945,15.506,15.507c0,8.566-6.945,15.504-15.506,15.504C287.568,373.952,280.634,367.015,280.634,358.448z
		 M364.142,436.619c-8.563,0-15.506-6.943-15.506-15.506c0-8.565,6.943-15.507,15.506-15.507c8.572,0,15.506,6.941,15.506,15.507
		C379.648,429.676,372.714,436.619,364.142,436.619z M374.449,257.592h-88.613c-6.998,0-12.67-5.672-12.67-12.668
		s5.672-12.668,12.67-12.668h88.613c6.996,0,12.668,5.672,12.668,12.668S381.445,257.592,374.449,257.592z"/>
</g>
<g>
</g>
<g>
</g>
<g>
</g>
<g>
</g>
<g>
</g>
<g>
</g>
<g>
</g>
<g>
</g>
<g>
</g>
<g>
</g>
<g>
</g>
<g>
</g>
<g>
</g>
<g>
</g>
<g>
</g>
</svg>
