 <svg version="1.0" xmlns="http://www.w3.org/2000/svg" width="700.000000pt" height="700.000000pt" viewBox="0 0 700.000000 700.000000" preserveAspectRatio="xMidYMid meet">
<metadata>
Created by potrace 1.12, written by Peter Selinger 2001-2015
</metadata>
<g transform="translate(0.000000,700.000000) scale(0.100000,-0.100000)" fill="#000000" stroke="none">
<path d="M1066 6915 c-49 -17 -103 -68 -127 -120 -18 -39 -19 -145 -19 -3295
0 -3128 1 -3257 19 -3295 23 -52 90 -111 139 -125 28 -7 768 -9 2433 -8 l2394
3 40 22 c46 24 75 54 101 103 18 34 19 132 19 3300 l0 3265 -22 42 c-26 48
-76 89 -130 109 -57 20 -4790 20 -4847 -1z m4559 -3415 l0 -2985 -2132 -3
-2133 -2 0 2990 0 2990 2133 -2 2132 -3 0 -2985z"></path>
<path d="M1894 6067 c-54 -21 -92 -56 -118 -109 l-26 -52 0 -691 0 -691 28
-55 c18 -35 42 -64 70 -84 l44 -30 1607 0 1607 0 42 28 c23 15 54 46 69 69
l28 42 3 705 2 705 -25 52 c-27 56 -69 93 -124 112 -49 17 -3163 16 -3207 -1z
m2916 -847 l0 -420 -1310 0 -1310 0 0 420 0 420 1310 0 1310 0 0 -420z"></path>
<path d="M1840 3808 c0 -2 -2 -101 -3 -221 l-2 -217 208 -2 c114 0 213 -1 220
-2 9 -1 12 49 12 219 l0 220 -217 3 c-120 1 -218 1 -218 0z"></path>
<path d="M2807 3804 c-4 -4 -7 -103 -7 -221 l0 -213 210 0 c116 0 213 0 218 0
4 0 7 98 7 218 l0 217 -211 3 c-115 1 -213 -1 -217 -4z"></path>
<path d="M3767 3804 c-7 -8 -10 -428 -3 -435 2 -2 102 -3 220 -1 l216 3 -2
217 -3 217 -211 3 c-115 1 -213 -1 -217 -4z"></path>
<path d="M4725 3797 c-3 -7 -4 -106 -3 -220 l3 -208 218 0 218 0 0 218 0 218
-216 3 c-169 2 -217 0 -220 -11z"></path>
<path d="M1840 2638 c0 -2 -1 -100 -1 -218 l-1 -215 219 0 218 0 0 215 0 215
-217 3 c-120 1 -218 1 -218 0z"></path>
<path d="M2800 2420 l0 -220 220 0 220 0 0 220 0 220 -220 0 -220 0 0 -220z"></path>
<path d="M3760 2420 l0 -220 220 0 220 0 0 220 0 220 -220 0 -220 0 0 -220z"></path>
<path d="M4725 2628 c-3 -7 -4 -371 -3 -808 l3 -795 218 0 217 0 0 805 0 805
-215 3 c-167 2 -217 0 -220 -10z"></path>
<path d="M1840 1455 c0 -3 -1 -101 -1 -217 l0 -213 218 0 218 0 0 215 0 215
-217 3 c-120 1 -218 0 -218 -3z"></path>
<path d="M2800 1240 l0 -220 218 2 217 3 0 215 0 215 -217 3 -218 2 0 -220z"></path>
<path d="M3764 1447 c-2 -7 -3 -105 -2 -217 l3 -205 218 -3 217 -2 0 220 0
220 -215 0 c-166 0 -217 -3 -221 -13z"></path>
</g>
</svg>